<?xml version="1.0"?>
<svg xmlns="http://www.w3.org/2000/svg" xmlns:xlink="http://www.w3.org/1999/xlink" version="1.1" viewBox="0 0 224 224" width="16px" height="16px"><g fill="none" fill-rule="nonzero" stroke="none" stroke-width="1" stroke-linecap="butt" stroke-linejoin="miter" stroke-miterlimit="10" stroke-dasharray="" stroke-dashoffset="0" font-family="none" font-weight="none" font-size="none" text-anchor="none" style="mix-blend-mode: normal"><path d="M0,224v-224h224v224z" fill="none"/><g fill="#ffd25c"><g id="surface1"><path d="M70,28c-10.77343,0 -19.35937,6.78125 -23.95312,15.75c-10.9375,2.29688 -20.72657,8.91407 -25.15625,19.57813c-8.47657,20.23437 -20.89063,54.08593 -20.89063,83.67187c0,26.96093 22.03907,49 49,49c19.41407,0 36.14843,-11.53907 44.07813,-28h37.84375c7.92968,16.46093 24.66405,28 44.07812,28c26.96093,0 49,-22.03907 49,-49c0,-10.99218 -3.39062,-25.32032 -7.65625,-40.25c-4.32032,-14.98437 -9.625,-30.29687 -13.78125,-41.78125c-4.04687,-10.99218 -13.5625,-18.04687 -24.44532,-20.83593c-4.53905,-9.1875 -13.17968,-16.13282 -24.11718,-16.13282c-10.00782,0 -17.88282,6.01563 -22.80468,14h-38.39063c-4.92187,-7.98437 -12.79687,-14 -22.80468,-14zM70,42c6.125,0 11.21093,3.9375 13.125,9.35157l1.64063,4.64843h54.46875l1.64062,-4.64843c1.91407,-5.41407 7,-9.35157 13.125,-9.35157c6.28907,0 11.42968,4.15625 13.23438,9.78907l1.3125,4.10157l4.26562,0.65625c7.65625,1.20312 13.94532,6.01562 16.625,13.23437c3.66407,10.0625 8.09375,23.13282 11.97657,36.09375c-7.65625,-4.92187 -16.67968,-7.875 -26.41407,-7.875c-19.41407,0 -36.14843,11.53907 -44.07812,28h-37.84375c-7.9297,-16.46093 -24.66407,-28 -44.07813,-28c-10.66407,0 -20.50782,3.55468 -28.54687,9.40625c3.99218,-14.60157 9.1328,-28.49218 13.34375,-38.66407c2.89843,-7 9.40625,-11.53905 17.0625,-12.35937l4.48437,-0.49218l1.42188,-4.26563c1.85937,-5.57812 7,-9.625 13.23437,-9.625zM49,112c19.41407,0 35,15.58593 35,35c0,19.41407 -15.58593,35 -35,35c-19.41407,0 -35,-15.58593 -35,-35c0,-19.41407 15.58593,-35 35,-35zM175,112c19.41407,0 35,15.58593 35,35c0,19.41407 -15.58593,35 -35,35c-19.41407,0 -35,-15.58593 -35,-35c0,-19.41407 15.58593,-35 35,-35zM97.28907,140h29.42187c-0.32812,2.29688 -0.71093,4.59375 -0.71093,7c0,2.40625 0.38282,4.70313 0.71093,7h-29.42187c0.32812,-2.29687 0.71093,-4.59375 0.71093,-7c0,-2.40625 -0.38282,-4.70312 -0.71093,-7z"/></g></g></g></svg>
